<?xml version="1.0" encoding="UTF-8"?>
<svg width="207px" height="90px" viewBox="0 0 207 90" version="1.1" xmlns="http://www.w3.org/2000/svg" xmlns:xlink="http://www.w3.org/1999/xlink">
    <title>Untitled</title>
    <defs>
        <linearGradient x1="50.004%" y1="-0.006%" x2="50.035%" y2="76.666%" id="linearGradient-1">
            <stop stop-color="#EFEDED" offset="0%"></stop>
            <stop stop-color="#383838" offset="100%"></stop>
        </linearGradient>
    </defs>
    <g id="Page-1" stroke="none" stroke-width="1" fill="none" fill-rule="evenodd">
        <g id="jinntec-logo-bw" transform="translate(0.000000, 1.000000)">
            <path d="M41.357,40 C37.754,23.612 51.342,23.749 44.86,24.027 C18.976,25.15 49.911,17.176 56.818,14.836 C66.628,11.508 13.515,14.71 35.062,8.829 C52.872,3.97 73.101,4.977 54.426,0" id="Path" stroke="url(#linearGradient-1)" stroke-width="2" stroke-linecap="round"></path>
            <path d="M20.74,45.846 L20.74,70.896 C20.74,74.402 19.978,77.362 18.452,79.774 C16.926,82.185 14.706,84.118 11.789,85.571 C8.873,87.024 5.243,88.128 0.898,88.884 L0,84.583 C3.225,84.021 5.943,83.222 8.154,82.185 C10.365,81.149 12.089,79.745 13.324,77.972 C14.561,76.199 15.179,73.966 15.179,71.274 L15.179,50.089 L2.752,50.089 L2.752,45.846 L20.74,45.846 Z M130.76,38.262 L130.76,45.846 L141.189,45.846 L140.551,50.031 L130.761,50.031 L130.761,67.525 C130.761,69.249 131.2,70.528 132.078,71.361 C132.958,72.194 134.381,72.611 136.351,72.611 C138.364421,72.6193219 140.347357,72.1192023 142.116,71.157 L144.201,74.906 C143.12,75.603 141.816,76.16 140.291,76.576 C138.800155,76.9882252 137.260783,77.1987663 135.714,77.202 C133.493,77.202 131.591,76.8 130.007,75.996 C128.424,75.192 127.227,74.068 126.415,72.625 C125.605,71.181 125.199,69.501 125.199,67.583 L125.199,38.93 L130.76,38.262 Z M158.583,58.647 L169.715,58.662 C169.659,55.685 169.017,53.41 167.789,51.838 C166.561,50.265 165.302,49.489 162.681,49.478 L162.681,49.479 C160.061,49.468 158.469,50.348 157.032,51.838 C156.092,52.812 155.123,54.138 154.531,55.892 C154.286,56.617 154.034,57.617 154.034,58.392 L154.03406,58.5307118 C154.020235,58.8471457 154.012049,59.3942331 154.009704,60.1723808 L154.009,60.667 C154.009,61.9445263 154.029145,62.7161895 154.068146,62.9832784 L154.065,62.933 C154.162,65.103 154.555,67.157 155.338,68.6 C156.12,70.043 157.664,70.978 158.938,71.666 C160.213,72.354 161.643,72.697 163.226,72.697 C164.713,72.697 166.089,72.475 167.354,72.029 C168.619,71.583 169.937,70.896 171.308,69.966 L173.828,73.482 C172.38,74.644 170.719,75.555 168.846,76.214 C166.984961,76.8706448 165.025484,77.2047773 163.052,77.2020172 C160.04,77.2020172 157.462,76.538 155.318,75.212 C153.174,73.884 151.543,72.015 150.422,69.602 C149.302,67.191 148.742,64.386 148.742,61.19 C148.742,58.11 149.298,55.354 150.408,52.922 C151.518,50.491 153.102,48.582 155.158,47.197 C157.215,45.812 159.615,45.12 162.358,45.12 C164.964,45.12 167.224,45.73 169.135,46.95 C171.047,48.17 172.515,49.92 173.538,52.196 C174.562,54.472 175.074,57.16 175.074,60.26 C175.074,61.151 175.151,61.965 175.074,62.933 L158.162,62.933 L158.162,58.647 L158.583,58.647 Z M196.01,45.12 C199.97,45.12 203.426,46.32 206.38,48.723 L203.745,52.356 C201.176,50.573 198.608,49.682 196.039,49.682 C194.301,49.682 192.781,50.108 191.477,50.961 C190.173,51.813 189.16,53.106 188.435,54.841 C187.711,56.574 187.349,58.729 187.349,61.306 C187.349,65.103 188.131,67.917 189.695,69.748 C191.26,71.578 193.365,72.494 196.01,72.494 L196.011,72.494 C198.656,72.494 201.244,71.603 203.774,69.821 L206.439,73.453 C205.087,74.596 203.465,75.507 201.572,76.185 C199.68,76.863 197.797,77.202 195.923,77.202 C192.892,77.202 190.285,76.548 188.103,75.24 C185.92,73.932 184.254,72.082 183.105,69.69 C181.956,67.297 181.382,64.503 181.382,61.306 C181.382,58.206 181.962,55.431 183.12,52.98 C184.279,50.53 185.964,48.607 188.175,47.212 C190.385,45.817 192.998,45.12 196.01,45.12 Z M75.562,45.12 C78.44,45.12 80.588,45.904 82.007,47.474 C83.427,49.043 84.137,51.28 84.137,54.186 L84.137,76.476 L78.575,76.476 L78.575,57.616 C78.575,55.504 78.459,53.886 78.227,52.762 C77.995,51.639 77.532,50.806 76.837,50.263 C76.141,49.721 75.099,49.45 73.708,49.45 C72.183,49.45 70.739,49.92 69.378,50.859 C68.0303786,51.7846363 66.8663205,52.9524243 65.945,54.303 L65.945,76.475 L60.383,76.475 L60.383,45.846 L65.163,45.846 L65.568,49.973 C66.7925725,48.4511464 68.3479829,47.2285009 70.116,46.398 C71.912,45.546 73.728,45.12 75.562,45.12 Z M107.333,45.12 C110.21,45.12 112.358,45.904 113.778,47.474 C115.198,49.043 115.907,51.28 115.907,54.186 L115.907,76.476 L110.345,76.476 L110.345,57.616 C110.345,55.504 110.229,53.886 109.998,52.762 C109.766,51.639 109.302,50.806 108.608,50.263 C107.912,49.721 106.869,49.45 105.478,49.45 C103.953,49.45 102.51,49.92 101.148,50.859 C99.8003786,51.7846363 98.6363205,52.9524243 97.715,54.303 L97.715,76.475 L92.154,76.475 L92.154,45.846 L96.933,45.846 L97.339,49.973 C98.5635725,48.4511464 100.118983,47.2285009 101.887,46.398 C103.683,45.546 105.498,45.12 107.333,45.12 Z M44.602,45.847 L44.602,72.233 L44.603,72.232 L53.09,72.232 L53.09,76.475 L29.742,76.475 L29.742,72.232 L39.041,72.232 L39.041,50.09 L30.032,50.09 L30.032,45.847 L44.602,45.847 Z" id="Combined-Shape" fill="#4D4C4E" fill-rule="nonzero"></path>
        </g>
    </g>
</svg>