<?xml version="1.0" encoding="utf-8"?>
<svg width="100%" height="100%" version="1.1" viewBox="95.4252 161.2095 687.1024 479.5857" xmlns="http://www.w3.org/2000/svg">
  <defs/>
  <g id="layer1" transform="matrix(1, 0, 0, 1, 3.000134, -3.000003)">
    <g transform="matrix(1, 0, 0, 1, -300.316467, -297.357361)">
      <ellipse cx="774.318" cy="757.545" rx="85.039" ry="85.039" opacity="1" stroke="#A1A1A1" stroke-opacity="1" stroke-width="1" stroke-linecap="butt" stroke-linejoin="miter" stroke-dasharray="none" fill="#FFFFFF" fill-opacity="1"/>
      <g transform="matrix(1, 0, 0, 1, 405.813782, 204.788605)">
        <text x="373.1951" y="549.2737" font-size="36" fill="#000000" fill-opacity="1" font-family="Arial" font-weight="normal" font-style="normal" style="white-space: pre;">N
            </text>
        <ellipse cx="338.869" cy="504.7849" rx="9.019319" ry="8.721966" opacity="1" stroke="#000000" stroke-opacity="1" stroke-width="1" stroke-linecap="butt" stroke-linejoin="miter" stroke-dasharray="none" fill="#F5A2FE" fill-opacity="1"/>
        <ellipse cx="320.8304" cy="539.673" rx="9.019332" ry="8.721992" opacity="1" stroke="#000000" stroke-opacity="1" stroke-width="1" stroke-linecap="butt" stroke-linejoin="miter" stroke-dasharray="none" fill="#9EFF74" fill-opacity="1"/>
        <ellipse cx="329.8497" cy="574.5609" rx="9.019332" ry="8.721939" opacity="1" stroke="#000000" stroke-opacity="1" stroke-width="1" stroke-linecap="butt" stroke-linejoin="miter" stroke-dasharray="none" fill="#FDAA66" fill-opacity="1"/>
        <ellipse cx="365.927" cy="600.7269" rx="9.019345" ry="8.721966" opacity="1" stroke="#000000" stroke-opacity="1" stroke-width="1" stroke-linecap="butt" stroke-linejoin="miter" stroke-dasharray="none" fill="#4AACFF" fill-opacity="1"/>
        <line x1="345.9119" y1="510.2335" x2="362.8369" y2="523.3271" opacity="1" stroke="#000000" stroke-opacity="1" stroke-width="1" stroke-linecap="butt" stroke-linejoin="miter" stroke-dasharray="none"/>
        <line x1="329.8497" y1="539.673" x2="356.9077" y2="539.6729" opacity="1" stroke="#000000" stroke-opacity="1" stroke-width="1" stroke-linecap="butt" stroke-linejoin="miter" stroke-dasharray="none"/>
        <line x1="337.3542" y1="569.7228" x2="361.452" y2="554.1871" opacity="1" stroke="#000000" stroke-opacity="1" stroke-width="1" stroke-linecap="butt" stroke-linejoin="miter" stroke-dasharray="none"/>
        <ellipse cx="383.9656" cy="539.6729" rx="27.05798" ry="26.16601" opacity="1" stroke="#000000" stroke-opacity="1" stroke-width="1" stroke-linecap="butt" stroke-linejoin="miter" stroke-dasharray="none" fill="#FFFFFF" fill-opacity="1"/>
        <line x1="368.4048" y1="592.3404" x2="376.5322" y2="564.8322" opacity="1" stroke="#000000" stroke-opacity="1" stroke-width="1" stroke-linecap="butt" stroke-linejoin="miter" stroke-dasharray="none"/>
        <text style="white-space: pre; fill: rgb(51, 51, 51); font-family: Arial, sans-serif; font-size: 28px;" x="373.195" y="548.367">N</text>
      </g>
    </g>
    <g transform="matrix(1, 0, 0, 1, 1.281993, 0.000427)">
      <ellipse cx="633.7458" cy="244.5056" rx="16.19797" ry="15.36015" opacity="1" stroke="#000000" stroke-opacity="1" stroke-width="1" stroke-linecap="butt" stroke-linejoin="miter" stroke-dasharray="none" fill="#FFFFFF" fill-opacity="1"/>
      <text x="631.2927" y="250.0392" font-size="12" fill="#000000" fill-opacity="1" font-family="Arial" font-weight="normal" font-style="normal" style="white-space: pre;">N
            </text>
      <ellipse cx="552.7558" cy="336.6665" rx="16.19791" ry="15.36014" opacity="1" stroke="#000000" stroke-opacity="1" stroke-width="1" stroke-linecap="butt" stroke-linejoin="miter" stroke-dasharray="none" fill="#FFFFFF" fill-opacity="1"/>
      <text x="550.3026" y="342.2001" font-size="12" fill="#000000" fill-opacity="1" font-family="Arial" font-weight="normal" font-style="normal" style="white-space: pre;">N
            </text>
      <ellipse cx="633.7458" cy="336.6665" rx="16.19797" ry="15.36014" opacity="1" stroke="#000000" stroke-opacity="1" stroke-width="1" stroke-linecap="butt" stroke-linejoin="miter" stroke-dasharray="none" fill="#FFFFFF" fill-opacity="1"/>
      <text x="631.2927" y="342.2001" font-size="12" fill="#000000" fill-opacity="1" font-family="Arial" font-weight="normal" font-style="normal" style="white-space: pre;">N
            </text>
      <ellipse cx="714.7357" cy="336.6665" rx="16.19799" ry="15.36014" opacity="1" stroke="#000000" stroke-opacity="1" stroke-width="1" stroke-linecap="butt" stroke-linejoin="miter" stroke-dasharray="none" fill="#FFFFFF" fill-opacity="1"/>
      <text x="712.2825" y="342.2001" font-size="12" fill="#000000" fill-opacity="1" font-family="Arial" font-weight="normal" font-style="normal" style="white-space: pre;">N
            </text>
      <ellipse cx="601.3499" cy="428.8274" rx="16.19802" ry="15.36015" opacity="1" stroke="#000000" stroke-opacity="1" stroke-width="1" stroke-linecap="butt" stroke-linejoin="miter" stroke-dasharray="none" fill="#FFFFFF" fill-opacity="1"/>
      <text x="598.8967" y="434.361" font-size="12" fill="#000000" fill-opacity="1" font-family="Arial" font-weight="normal" font-style="normal" style="white-space: pre;">N
            </text>
      <line x1="623.3762" y1="256.3056" x2="563.1255" y2="324.8665" opacity="1" stroke="#000000" stroke-opacity="1" stroke-width="1" stroke-linecap="butt" stroke-linejoin="miter" stroke-dasharray="none"/>
      <line x1="633.7458" y1="259.8658" x2="633.7458" y2="321.3064" opacity="1" stroke="#000000" stroke-opacity="1" stroke-width="1" stroke-linecap="butt" stroke-linejoin="miter" stroke-dasharray="none"/>
      <line x1="644.1155" y1="256.3056" x2="704.366" y2="324.8665" opacity="1" stroke="#000000" stroke-opacity="1" stroke-width="1" stroke-linecap="butt" stroke-linejoin="miter" stroke-dasharray="none"/>
      <line x1="545.512" y1="350.405" x2="501.709" y2="423.794" opacity="1" stroke="#000000" stroke-opacity="1" stroke-width="1" stroke-linecap="butt" stroke-linejoin="miter" stroke-dasharray="none" style=""/>
      <line x1="559.9998" y1="350.405" x2="594.1058" y2="415.0889" opacity="1" stroke="#000000" stroke-opacity="1" stroke-width="1" stroke-linecap="butt" stroke-linejoin="miter" stroke-dasharray="none"/>
    </g>
    <line x1="169.9096" y1="164.2095" x2="169.9096" y2="164.434" opacity="1" stroke="#000000" stroke-opacity="1" stroke-width="1" stroke-linecap="butt" stroke-linejoin="miter" stroke-dasharray="none"/>
    <text x="213.561" y="462.236" font-size="20" fill="#000000" fill-opacity="1" font-family="Arial" font-weight="normal" font-style="normal" style="white-space: pre; font-size: 20px;">Model Items
        </text>
    <line x1="307.498" y1="449.21" x2="424.308" y2="418.25" opacity="1" stroke="#000000" stroke-opacity="1" stroke-width="1" stroke-linecap="butt" stroke-linejoin="miter" stroke-dasharray="2,2" style=""/>
    <line x1="307.498" y1="449.21" x2="424.308" y2="444.188" opacity="1" stroke="#000000" stroke-opacity="1" stroke-width="1" stroke-linecap="butt" stroke-linejoin="miter" stroke-dasharray="2,2" style=""/>
    <line x1="320.941" y1="467.378" x2="415.11" y2="481.761" opacity="1" stroke="#000000" stroke-opacity="1" stroke-width="1" stroke-linecap="butt" stroke-linejoin="miter" stroke-dasharray="2,2"/>
    <line x1="320.941" y1="467.378" x2="469.685" y2="514.933" opacity="1" stroke="#000000" stroke-opacity="1" stroke-width="1" stroke-linecap="butt" stroke-linejoin="miter" stroke-dasharray="2,2" style=""/>
  </g>
  <g transform="matrix(13.985373, 0, 0, 13.985373, 402.246613, 501.100494)">
    <defs/>
    <path d="M 5.426 -9.299 C 8.795 -9.299 11.528 -6.568 11.528 -3.198 C 11.528 -1.74 11.016 -0.402 10.164 0.648 L 14.288 4.771 C 14.534 5.019 14.534 5.418 14.288 5.664 C 14.065 5.889 13.714 5.909 13.466 5.725 L 13.395 5.664 L 9.272 1.54 C 8.222 2.392 6.884 2.904 5.426 2.904 C 2.056 2.904 -0.675 0.171 -0.675 -3.198 C -0.675 -6.568 2.056 -9.299 5.426 -9.299 Z M 5.426 -8.036 C 2.754 -8.036 0.588 -5.87 0.588 -3.198 C 0.588 -0.525 2.754 1.641 5.426 1.641 C 8.099 1.641 10.265 -0.525 10.265 -3.198 C 10.265 -5.87 8.099 -8.036 5.426 -8.036 Z" style="stroke-width: 0.21451px; stroke-miterlimit: 4.41; fill: rgb(138, 138, 138);"/>
  </g>
  <text style="fill: rgb(51, 51, 51); font-family: Arial, sans-serif; font-size: 20px; white-space: pre;" x="471.224" y="246.134">a tree of nodes</text>
  <text style="white-space: pre; fill: rgb(51, 51, 51); font-family: Arial, sans-serif; font-size: 28px;" x="919.199" y="161.195">Enter your text here</text>
</svg>