<?xml version="1.0" encoding="UTF-8"?>
<svg width="280px" height="270px" viewBox="0 0 280 270" version="1.1" xmlns="http://www.w3.org/2000/svg" xmlns:xlink="http://www.w3.org/1999/xlink">
    <title>cloud-submit</title>
    <g id="Page-1" stroke="none" stroke-width="1" fill="none" fill-rule="evenodd">
        <path d="M172.152428,0 C178.001434,0 183.85993,0.794709965 189.569749,2.35983745 C208.173321,7.45431007 223.850808,20.193962 233.717249,38.2293667 C242.68214,54.6163556 245.870781,73.5852843 242.897247,92.2245298 C264.38578,96.9650268 280,117.474791 280,142.100388 C280,170.168573 259.188421,193 233.603369,193 L233.603369,193 L221,192.999 L220.999009,182.608425 C224.187512,182.600139 227.500904,182.594891 230.9501,182.593106 L233.603369,182.592423 C253.953102,182.592423 270.509996,164.428615 270.503673,142.096918 C270.503673,120.934729 256.009269,103.593394 236.792011,101.761049 C235.40647,101.629176 234.147463,100.837936 233.340812,99.5990218 C232.534162,98.3566368 232.265279,96.7915093 232.600592,95.3131406 C236.630681,77.6039486 234.137973,59.23192 225.574826,43.5806452 C217.011678,27.9293703 203.409339,16.8763081 187.266842,12.4516129 C182.309896,11.0947064 177.223254,10.4041069 172.149265,10.4041069 C147.25382,10.4041069 124.803634,26.6279894 114.953009,51.7324954 C114.336159,53.3080339 113.045518,54.4497788 111.511301,54.779462 C109.970757,55.1195562 108.392253,54.5920631 107.272433,53.387852 C102.264874,47.9949293 95.644014,45.0277808 88.6277375,45.0277808 C81.4248243,45.0277808 74.6774312,48.1372137 69.628749,53.7765311 C64.5832301,59.4158485 61.8089855,67.1790197 62.0177656,75.0775344 C62.0557256,76.5073183 61.5559187,77.8885173 60.6385516,78.9018592 C59.7211845,79.9117309 58.4526873,80.4982199 57.1620467,80.4322832 L57.1620467,80.4322832 L56.0327362,80.4184018 C30.9727983,80.4184018 10.1011156,102.791743 9.50324535,130.29079 C9.20589188,143.932733 13.7705839,156.880606 22.3527111,166.757219 C30.9348383,176.633833 42.5094802,182.252329 54.9445491,182.575071 C59.8962766,182.703589 64.5735189,182.817909 69.0067194,182.919209 L69,192.983 L54.726279,192.982648 C39.9534202,192.595798 26.196439,186.011805 15.9060464,174.420033 L15.4851114,173.940842 C5.15366007,162.058367 -0.341052399,146.462617 0.0164044281,130.040925 C0.709174739,98.1588269 24.0450952,72.002805 52.7175614,70.1184054 C53.5716618,61.279426 57.1399034,52.8777106 62.8592126,46.4853274 C69.704669,38.8332075 78.8561965,34.6202035 88.6309008,34.6202035 C95.9730008,34.6202035 102.998767,37.0182148 108.942673,41.4741432 C121.371416,16.0711871 145.551946,0 172.152428,0 Z" id="Combined-Shape" fill="#000000" fill-rule="nonzero"></path>
        <g id="Group" transform="translate(178.000000, 226.000000) scale(1, -1) rotate(90.000000) translate(-178.000000, -226.000000) translate(134.500000, 171.500000)" fill="#212121" fill-rule="nonzero">
            <path d="M64.5,74.9375503 C53.8704778,74.9375503 37.9261945,74.9375503 16.66715,74.9375503 L40.8728137,100.278024 C42.6057178,102.091512 42.7632782,104.930283 41.3454299,106.930434 L40.8728137,107.503366 C39.1399748,109.317536 36.4282568,109.482399 34.5174221,107.997954 L33.9699632,107.503366 L1.42960818,73.4408431 C-0.303230804,71.6273544 -0.460791203,68.7885837 0.956992064,66.7884324 L1.42960818,66.2155007 L33.9699632,32.1527735 C35.8761772,30.157459 38.9666648,30.157459 40.8728137,32.1527735 C42.6057178,33.9667391 42.7632782,36.8052372 41.3454299,38.8054567 L40.8728137,39.3785246 L16.66715,64.7187935 C37.7039722,64.7187935 53.4815889,64.7187935 64,64.7187935 M62.5947338,64.7187935 C70.3445447,64.7187935 76.6886123,58.4158642 77.2040515,50.4397839 L77.2378935,49.3906582 C76.9307701,32.5399114 76.7115231,19.8748435 76.5801527,11.3954545 C76.5653585,10.4405559 76.5653585,8.95419222 76.5801527,6.93636364 C76.5801527,4.11455612 79.4233037,5.68434189e-14 82.1189468,5.68434189e-14 C84.8145898,5.68434189e-14 87,2.28757091 87,5.10937843 L87,49.3906582 C87,63.5000364 76.0729488,74.9375503 62.5947338,74.9375503" id="Shape"></path>
        </g>
        <g id="Group" transform="translate(105.500000, 148.752941) scale(-1, 1) rotate(90.000000) translate(-105.500000, -148.752941) translate(61.247059, 105.752941)" fill="#212121" fill-rule="nonzero">
            <path d="M65.5,59.1250397 C54.6341777,59.1250397 38.3354443,59.1250397 16.6037998,59.1250397 L40.7174601,79.1184407 C42.4437775,80.5492666 42.6007391,82.7890306 41.1882798,84.3671317 L40.7174601,84.8191695 C38.9912074,86.2505329 36.2897965,86.380608 34.3862247,85.2093947 L33.8408466,84.8191695 L1.42417437,57.9441514 C-0.302078253,56.5133255 -0.459039779,54.2735615 0.953354628,52.6954604 L1.42417437,52.2434226 L33.8408466,25.3682433 C35.7398152,23.7939585 38.8185562,23.7939585 40.7174601,25.3682433 C42.4437775,26.7994455 42.6007391,29.0389945 41.1882798,30.6171493 L40.7174601,31.0692946 L16.6037998,51.0625343 C38.1132221,51.0625343 54.2452888,51.0625343 65,51.0625343 M64.1933782,51.0625343 C71.9137329,51.0625343 78.2336873,46.089581 78.7471674,39.7965267 L78.7808807,38.9687762 L78.5,6.5 C78.5,4.27361975 80.9579844,0 83.6433815,0 C86.3287786,0 88.5058824,1.80487246 88.5058824,4.03125271 L88.5058824,38.9687762 C88.5058824,50.1009462 77.6203638,59.1250397 64.1933782,59.1250397" id="Shape"></path>
        </g>
    </g>
</svg>