<svg xmlns="http://www.w3.org/2000/svg" xmlns:xlink="http://www.w3.org/1999/xlink" version="1.1" x="0px" y="0px" viewBox="0 0 100 125" enable-background="new 0 0 100 100" xml:space="preserve"><path d="M83.034,44.719c0.94-5.371-0.068-10.837-2.902-15.559c-3.119-5.197-8.075-8.868-13.956-10.336  c-1.805-0.451-3.657-0.68-5.506-0.68c-8.409,0-16.053,4.631-19.982,11.951c-1.879-1.284-4.1-1.975-6.421-1.975  c-3.09,0-5.983,1.214-8.147,3.419c-1.808,1.842-2.936,4.263-3.206,6.81c-9.064,0.543-16.441,8.08-16.66,17.267  c-0.113,4.732,1.624,9.226,4.89,12.65c3.267,3.426,7.671,5.374,12.405,5.487l56.547,0.005c8.088,0,14.667-6.579,14.667-14.667  C94.763,51.995,89.827,46.085,83.034,44.719z M80.096,70.759H23.969l-0.351-0.005c-3.931-0.093-7.59-1.712-10.303-4.558  s-4.156-6.577-4.062-10.508c0.189-7.924,6.787-14.371,14.709-14.371l0.357,0.004c0.408,0.019,0.809-0.15,1.099-0.441  c0.29-0.292,0.448-0.69,0.436-1.102c-0.066-2.276,0.811-4.513,2.406-6.138c1.596-1.625,3.729-2.521,6.006-2.521  c2.218,0,4.311,0.855,5.894,2.409c0.354,0.347,0.853,0.499,1.34,0.401c0.485-0.095,0.893-0.424,1.088-0.878  c3.114-7.234,10.211-11.909,18.081-11.909c1.604,0,3.212,0.199,4.779,0.59c5.103,1.275,9.403,4.46,12.11,8.97  s3.495,9.804,2.221,14.907c-0.106,0.426-0.021,0.877,0.234,1.235c0.255,0.357,0.653,0.585,1.091,0.623  c6.075,0.528,10.657,5.525,10.657,11.623C91.763,65.525,86.529,70.759,80.096,70.759z"/></svg>